<?xml version="1.0" encoding="UTF-8"?>
<svg xmlns="http://www.w3.org/2000/svg" viewBox="0 0 1000 1000">
  <g id="Layer_3" data-name="Layer 3">
    <rect width="1000" height="1000" style="fill: #3aacaa;"/>
  </g>
  <g id="Layer_1" data-name="Layer 1">
    <path d="M346.1,471.65l-13.67,276.14c-4.89-.06-9.79.77-14.45,2.49l-122.06,45.14c-12,4.43-24.49-5.27-23.15-18l26.78-254.66,133.74-50.08c4.16-1.56,8.6-1.88,12.81-1.03Z" style="fill: #5cb45e;"/>
    <path d="M498.87,700.67l-2.67,107.75c-4.19,0-8.4-.8-12.36-2.41l-136.84-55.3c-4.68-1.89-9.61-2.87-14.57-2.92l13.67-276.14c3.89.77,7.6,2.53,10.72,5.21l106.26,91.33-39.61,28.88c-11.05,8.06-11.92,24.23-1.8,33.42l77.2,70.18Z" style="fill: #45934e;"/>
    <path d="M655.46,472.12v278.51c-5.47.07-10.93,1.15-16.09,3.21l-57,22.74-83.5-75.91,4.02-162.48h0s98.66-70.01,98.66-70.01c9.34-6.62,21.34-8.19,32.07-4.2l21.84,8.14Z" style="fill: #5cb55f;"/>
    <path d="M582.37,776.58l-73.91,29.49c-3.94,1.57-8.1,2.35-12.26,2.35l2.67-107.75,83.5,75.91Z" style="fill: #5db45e;"/>
    <path d="M655.46,328.29v143.83l-21.84-8.14c-10.73-3.99-22.73-2.42-32.07,4.2l-98.66,70,3.5-141.69c4.8-.16,9.56-1.34,13.95-3.54l122.1-61.05c4.11-2.05,8.53-3.26,13.02-3.61Z" style="fill: #36b0d0;"/>
    <path d="M352.72,337.66l-6.62,133.99c-4.21-.85-8.65-.53-12.81,1.03l-133.74,50.08,11.11-105.71c1.5-14.22,10.55-26.51,23.68-32.16l101.64-43.74c5.34-2.29,11.03-3.46,16.74-3.49Z" style="fill: #35afce;"/>
    <path d="M506.39,396.49l-3.5,141.69h0s-1.67,1.19-1.67,1.19l-38.14,28.82-106.26-91.33c-3.12-2.68-6.83-4.44-10.72-5.21l6.62-133.99h.01c5.83-.02,11.65,1.14,17.12,3.5l122.05,52.6c4.62,1.99,9.57,2.9,14.49,2.73Z" style="fill: #2490a9;"/>
    <path d="M502.89,538.19l-4.02,162.48-77.2-70.18c-10.12-9.19-9.25-25.36,1.8-33.42l39.61-28.88,38.14-28.82,1.67-1.18Z" style="fill: #46934e;"/>
    <path d="M803.12,801.71l-131.41-48.31c-5.24-1.93-10.75-2.85-16.25-2.77v-278.51l163.48,60.97,8.04,251.06c.64,12.71-11.91,21.95-23.86,17.56Z" style="fill: #46924f;"/>
    <path d="M818.94,533.09l-163.48-60.97v-143.83c4.62-.36,9.32.19,13.81,1.68l128.03,42.43c10.02,3.32,16.9,12.54,17.24,23.09l4.4,137.6Z" style="fill: #2490a9;"/>
    <path d="M199.55,522.76l133.74-50.08c8.02-3,17.04-1.4,23.53,4.18l106.27,91.33-39.62,28.89c-11.05,8.06-11.92,24.22-1.8,33.42l160.71,146.09" style="fill: none; stroke: #fffbee; stroke-miterlimit: 10; stroke-width: 30px;"/>
    <path d="M463.08,568.19l38.14-28.81,100.33-71.19c9.33-6.62,21.34-8.19,32.06-4.2l180.58,67.32" style="fill: none; stroke: #fffbee; stroke-miterlimit: 10; stroke-width: 30px;"/>
    <path d="M210.66,417.05l-37.9,360.38c-1.34,12.72,11.15,22.43,23.15,17.99l122.06-45.14c9.39-3.47,19.74-3.32,29.02.43l136.83,55.3c7.89,3.19,16.71,3.21,24.62.06l130.91-52.23c10.36-4.13,21.88-4.29,32.34-.44l131.4,48.31c11.95,4.39,24.51-4.85,23.86-17.56l-12.44-388.65c-.34-10.55-7.22-19.77-17.24-23.09l-128.03-42.44c-8.84-2.93-18.49-2.24-26.82,1.93l-122.11,61.05c-8.9,4.45-19.3,4.74-28.44.81l-122.05-52.6c-10.81-4.66-23.05-4.66-33.86,0l-101.64,43.74c-13.13,5.65-22.18,17.95-23.67,32.16Z" style="fill: none; stroke: #000; stroke-miterlimit: 10; stroke-width: 30px;"/>
  </g>
  <g id="Layer_2" data-name="Layer 2">
    <path d="M749.64,298.8c0,33.88-11.59,65.07-31.02,89.8l-.07.09-114.36,149.5-115.86-151.45c-18.57-24.42-29.59-54.89-29.59-87.94,0-80.32,65.12-145.44,145.45-145.44s145.45,65.12,145.45,145.44Z" style="fill: #fff; stroke: #000; stroke-miterlimit: 10; stroke-width: 29px;"/>
    <path d="M666.39,256.15c.36-1.07.54-2.04.54-2.91s-.12-1.61-.36-2.24c-.24-.63-.73-1.15-1.48-1.56-.75-.42-1.42-.75-2.02-.98-.6-.24-1.48-.45-2.65-.63-1.17-.18-2.16-.3-2.97-.36-.81-.06-1.87-.15-3.19-.27-.6-.52-.9-1.6-.9-3.23s.3-2.77.9-3.42c9.83.26,16.57.39,20.23.39,1.62,0,6.95-.13,16-.39.48.65.73,1.78.76,3.38.03,1.6-.22,2.69-.76,3.28-4.8.24-8.32,1.27-10.56,3.09-2.25,1.82-4,4.49-5.26,8.01l-36.23,99.32c-.96,2.8-2.61,4.23-4.94,4.3-2.82,0-4.73-1.49-5.75-4.47l-21.58-65.05c-1.08-3.4-1.92-5.1-2.52-5.1-.72,0-1.59,1.52-2.61,4.56l-25.62,65.59c-1.08,2.92-2.78,4.41-5.11,4.47-2.81,0-4.68-1.5-5.64-4.49l-33.52-100.15c-1.62-4.44-3.19-7.17-4.72-8.19-1.53-1.02-4.51-1.65-8.94-1.88-.48-.52-.72-1.6-.72-3.23s.24-2.77.72-3.42c9.83.26,15.54.39,17.16.39,5.73,0,12.64-.13,20.72-.39.48.65.72,1.78.72,3.38s-.24,2.69-.72,3.28c-2.58.11-4.54.34-5.89.67-1.35.34-2.38,1.02-3.1,2.05-.72,1.03-.78,2.53-.18,4.49l27.6,84.86h.36l23.19-60.61c.84-2.32,1.26-4.65,1.26-6.97,0-1.61-.3-3.31-.9-5.09l-2.79-8.49c-.84-2.8-2.61-5.26-5.3-7.37-2.7-2.12-6.26-3.29-10.7-3.53-.48-.52-.72-1.6-.72-3.23s.24-2.77.72-3.42c9.83.26,15.97.39,18.43.39,3.42,0,10.91-.13,22.47-.39.48.65.72,1.78.72,3.38s-.24,2.69-.72,3.28c-1.74.12-3,.24-3.78.36-.78.12-1.84.42-3.19.89-1.35.48-2.16,1.06-2.43,1.74-.27.69-.62,1.7-1.03,3.04-.42,1.34-.15,2.97.81,4.88l26.52,81.6h.36l29.31-83.57Z"/>
  </g>
</svg>